<svg width="60" height="60" viewBox="0 0 60 60" fill="none" xmlns="http://www.w3.org/2000/svg">
<circle r="29.5" transform="matrix(-1 0 0 1 30 30)" stroke="#DBDCDB"/>
<path d="M35 29.5H35.5V30.5H35V29.5ZM24.6464 30.3536C24.4512 30.1583 24.4512 29.8417 24.6464 29.6464L27.8284 26.4645C28.0237 26.2692 28.3403 26.2692 28.5355 26.4645C28.7308 26.6597 28.7308 26.9763 28.5355 27.1716L25.7071 30L28.5355 32.8284C28.7308 33.0237 28.7308 33.3403 28.5355 33.5355C28.3403 33.7308 28.0237 33.7308 27.8284 33.5355L24.6464 30.3536ZM35 30.5H25V29.5H35V30.5Z" fill="white"/>
</svg>
