<svg width="171" height="90" viewBox="0 0 171 90" fill="none" xmlns="http://www.w3.org/2000/svg">
<circle cx="86" cy="30" r="29" stroke="black" stroke-width="2"/>
<path d="M98.3633 19.4531H73.6367C72.1799 19.4531 71 20.6404 71 22.0898V37.9102C71 39.3683 72.1886 40.5469 73.6367 40.5469H98.3633C99.8079 40.5469 101 39.3732 101 37.9102V22.0898C101 20.6429 99.8248 19.4531 98.3633 19.4531ZM97.994 21.2109C97.4553 21.7468 88.1846 30.9687 87.8645 31.2871C87.3664 31.7852 86.7043 32.0594 86 32.0594C85.2957 32.0594 84.6336 31.7851 84.1339 31.2855C83.9186 31.0713 74.7502 21.9512 74.006 21.2109H97.994ZM72.7578 37.5524V22.4487L80.3538 30.0047L72.7578 37.5524ZM74.0071 38.7891L81.6001 31.2444L82.8926 32.5301C83.7226 33.3601 84.8262 33.8172 86 33.8172C87.1738 33.8172 88.2774 33.3601 89.1058 32.5317L90.3999 31.2444L97.9929 38.7891H74.0071ZM99.2422 37.5524L91.6462 30.0047L99.2422 22.4487V37.5524Z" fill="black"/>
<path d="M1.35 85H2.97V79.6C3.006 78.304 3.942 77.404 5.4 77.404C6.714 77.404 7.47 78.16 7.47 79.69V85H9.09V79.69C9.09 77.206 7.74 75.856 5.67 75.856C4.5 75.856 3.564 76.288 2.97 77.062V72.4H1.35V85ZM15.2135 85.144C17.6435 85.144 18.8135 83.974 19.1735 82.21H17.5175C17.1575 83.146 16.6355 83.668 15.2135 83.668C13.8635 83.668 12.9095 82.768 12.8555 81.022H19.2635V80.158C19.2635 77.512 17.6075 75.856 15.2135 75.856C12.8375 75.856 11.1635 77.53 11.1635 80.158V80.842C11.1635 83.506 12.8015 85.144 15.2135 85.144ZM15.2135 77.332C16.5635 77.332 17.3915 78.034 17.5355 79.618H12.8735C13.0355 78.088 13.9355 77.332 15.2135 77.332ZM24.0522 85H24.8442V83.524H24.2862C23.4582 83.524 23.0442 83.092 23.0442 82.174V72.4H21.4242V82.354C21.4242 84.064 22.3602 85 24.0522 85ZM29.185 85H29.977V83.524H29.419C28.591 83.524 28.177 83.092 28.177 82.174V72.4H26.557V82.354C26.557 84.064 27.493 85 29.185 85ZM35.2898 85.144C37.7918 85.144 39.4298 83.506 39.4298 80.842V80.158C39.4298 77.476 37.8098 75.856 35.2898 75.856C32.7878 75.856 31.1498 77.494 31.1498 80.158V80.842C31.1498 83.524 32.7698 85.144 35.2898 85.144ZM35.2898 83.596C33.7958 83.596 32.8418 82.642 32.8418 80.842V80.158C32.8418 78.34 33.7778 77.404 35.2898 77.404C36.7838 77.404 37.7378 78.358 37.7378 80.158V80.842C37.7378 82.66 36.8018 83.596 35.2898 83.596ZM49.6863 88.744C51.3423 88.744 52.9443 88.456 53.8263 88.096V86.458C52.7103 86.908 51.3243 87.196 49.6863 87.196C45.9963 87.196 43.0263 84.262 43.0263 80.5C43.0263 76.72 45.9963 73.804 49.6863 73.804C53.7183 73.804 56.3103 76.36 56.3103 79.582C56.3103 81.85 55.0143 83.146 53.7363 83.146C53.1063 83.146 52.7463 82.786 52.7463 82.264C52.7463 82.12 52.7823 82.012 52.8003 81.868L53.7543 76.45H52.1343L51.9723 77.332C51.4863 76.63 50.6943 76.306 49.7043 76.306C47.6883 76.306 46.0683 77.908 45.6723 80.14C45.5823 80.68 45.4743 81.22 45.4743 81.598C45.4743 83.524 46.6623 84.694 48.3543 84.694C49.5423 84.694 50.5323 84.19 51.2523 83.308C51.5583 84.154 52.4223 84.694 53.7003 84.694C56.1483 84.694 57.9663 82.876 57.9663 79.582C57.9663 75.586 54.6363 72.256 49.6863 72.256C45.0963 72.256 41.4063 75.928 41.4063 80.5C41.4063 85.072 45.0963 88.744 49.6863 88.744ZM48.8763 83.128C47.7423 83.128 47.1663 82.462 47.1663 81.562C47.1663 81.292 47.2203 80.824 47.3643 80.14C47.6343 78.79 48.5343 77.854 49.7583 77.854C50.8383 77.854 51.5403 78.484 51.5403 79.438C51.5403 79.708 51.4503 80.248 51.3243 80.86C51.0543 82.192 50.1363 83.128 48.8763 83.128ZM63.4888 85.144C64.7668 85.144 65.7928 84.676 66.4228 83.722L66.6028 85H67.8628V72.4H66.2428V77.044C65.5948 76.252 64.6588 75.856 63.5068 75.856C61.4548 75.856 59.9428 77.368 59.9428 80.158V80.842C59.9428 83.65 61.4368 85.144 63.4888 85.144ZM63.9388 83.596C62.5348 83.596 61.6348 82.678 61.6348 80.842V80.158C61.6348 78.286 62.5168 77.404 63.9388 77.404C65.2348 77.404 66.1888 78.322 66.2428 80.032V80.986C66.1888 82.678 65.2348 83.596 63.9388 83.596ZM70.6991 85H72.3191V76H70.6991V85ZM71.5091 74.632C72.1211 74.632 72.5891 74.164 72.5891 73.552C72.5891 72.94 72.1211 72.472 71.5091 72.472C70.8971 72.472 70.4291 72.94 70.4291 73.552C70.4291 74.164 70.8971 74.632 71.5091 74.632ZM78.1845 84.784C79.3365 84.784 80.2725 84.388 80.9205 83.632V85C80.9205 86.656 80.2725 87.304 78.7245 87.304C77.3565 87.304 76.8705 86.8 76.6905 85.9H75.0705C75.2505 87.646 76.3305 88.744 78.7245 88.744C81.2265 88.744 82.5405 87.43 82.5405 85V76H81.2805L81.1005 77.278C80.4705 76.342 79.4625 75.856 78.1845 75.856C76.1325 75.856 74.6205 77.368 74.6205 79.978V80.662C74.6205 83.29 76.1145 84.784 78.1845 84.784ZM78.6165 83.236C77.2125 83.236 76.3125 82.354 76.3125 80.662V79.978C76.3125 78.304 77.1945 77.404 78.6165 77.404C79.9485 77.404 80.9205 78.376 80.9205 79.978V80.662C80.9205 82.264 79.9485 83.236 78.6165 83.236ZM85.3768 85H86.9968V76H85.3768V85ZM86.1868 74.632C86.7988 74.632 87.2668 74.164 87.2668 73.552C87.2668 72.94 86.7988 72.472 86.1868 72.472C85.5748 72.472 85.1068 72.94 85.1068 73.552C85.1068 74.164 85.5748 74.632 86.1868 74.632ZM88.7583 77.476H90.3783V82.354C90.3783 84.046 91.3323 85 93.0243 85H94.5183V83.524H93.2583C92.4303 83.524 91.9983 83.092 91.9983 82.174V77.476H94.3383V76H91.9983V73.48H90.3783V76H88.7583V77.476ZM98.7504 85.144C100.064 85.144 101.144 84.55 101.792 83.524L101.99 85H103.25V78.88C103.25 77.026 102.08 75.856 99.8304 75.856C97.4544 75.856 96.3204 76.99 96.2304 78.52H98.0304C98.1204 77.8 98.6244 77.296 99.8304 77.296C101.054 77.296 101.63 77.872 101.63 78.88V79.546H99.8304C96.9684 79.546 95.8704 80.644 95.8704 82.48C95.8704 84.136 96.8784 85.144 98.7504 85.144ZM98.9304 83.704C98.0664 83.704 97.5624 83.2 97.5624 82.444C97.5624 81.526 98.1744 80.914 99.8304 80.914H101.63V81.238C101.63 82.57 100.496 83.704 98.9304 83.704ZM108.48 85H109.272V83.524H108.714C107.886 83.524 107.472 83.092 107.472 82.174V72.4H105.852V82.354C105.852 84.064 106.788 85 108.48 85ZM114.009 85.144C115.161 85.144 116.097 84.748 116.745 83.974V88.6H118.365V76H117.105L116.925 77.296C116.295 76.342 115.287 75.856 114.009 75.856C111.957 75.856 110.445 77.368 110.445 80.158V80.842C110.445 83.65 111.939 85.144 114.009 85.144ZM114.441 83.596C113.037 83.596 112.137 82.696 112.137 80.842V80.158C112.137 78.304 113.019 77.404 114.441 77.404C115.737 77.404 116.691 78.322 116.745 80.032V80.842C116.745 82.624 115.773 83.596 114.441 83.596ZM123.307 85.144C124.621 85.144 125.701 84.55 126.349 83.524L126.547 85H127.807V78.88C127.807 77.026 126.637 75.856 124.387 75.856C122.011 75.856 120.877 76.99 120.787 78.52H122.587C122.677 77.8 123.181 77.296 124.387 77.296C125.611 77.296 126.187 77.872 126.187 78.88V79.546H124.387C121.525 79.546 120.427 80.644 120.427 82.48C120.427 84.136 121.435 85.144 123.307 85.144ZM123.487 83.704C122.623 83.704 122.119 83.2 122.119 82.444C122.119 81.526 122.731 80.914 124.387 80.914H126.187V81.238C126.187 82.57 125.053 83.704 123.487 83.704ZM133.037 85H133.829V83.524H133.271C132.443 83.524 132.029 83.092 132.029 82.174V72.4H130.409V82.354C130.409 84.064 131.345 85 133.037 85ZM137.967 85.144C139.281 85.144 140.361 84.55 141.009 83.524L141.207 85H142.467V78.88C142.467 77.026 141.297 75.856 139.047 75.856C136.671 75.856 135.537 76.99 135.447 78.52H137.247C137.337 77.8 137.841 77.296 139.047 77.296C140.271 77.296 140.847 77.872 140.847 78.88V79.546H139.047C136.185 79.546 135.087 80.644 135.087 82.48C135.087 84.136 136.095 85.144 137.967 85.144ZM138.147 83.704C137.283 83.704 136.779 83.2 136.779 82.444C136.779 81.526 137.391 80.914 139.047 80.914H140.847V81.238C140.847 82.57 139.713 83.704 138.147 83.704ZM145.969 85.144C146.707 85.144 147.229 84.586 147.229 83.884C147.229 83.182 146.707 82.624 145.969 82.624C145.231 82.624 144.709 83.182 144.709 83.884C144.709 84.586 145.231 85.144 145.969 85.144ZM155.149 85H157.129L153.655 79.942L156.769 76H154.825L151.189 80.626V72.4H149.569V85H151.189V82.858L152.593 81.13L155.149 85ZM158.205 77.476H163.173L158.025 83.524V85H165.045V83.524H159.897L165.045 77.476V76H158.205V77.476Z" fill="black"/>
</svg>
