<svg width="113" height="90" viewBox="0 0 113 90" fill="none" xmlns="http://www.w3.org/2000/svg">
<path d="M9.45 88.744C11.106 88.744 12.708 88.456 13.59 88.096V86.458C12.474 86.908 11.088 87.196 9.45 87.196C5.76 87.196 2.79 84.262 2.79 80.5C2.79 76.72 5.76 73.804 9.45 73.804C13.482 73.804 16.074 76.36 16.074 79.582C16.074 81.85 14.778 83.146 13.5 83.146C12.87 83.146 12.51 82.786 12.51 82.264C12.51 82.12 12.546 82.012 12.564 81.868L13.518 76.45H11.898L11.736 77.332C11.25 76.63 10.458 76.306 9.468 76.306C7.452 76.306 5.832 77.908 5.436 80.14C5.346 80.68 5.238 81.22 5.238 81.598C5.238 83.524 6.426 84.694 8.118 84.694C9.306 84.694 10.296 84.19 11.016 83.308C11.322 84.154 12.186 84.694 13.464 84.694C15.912 84.694 17.73 82.876 17.73 79.582C17.73 75.586 14.4 72.256 9.45 72.256C4.86 72.256 1.17 75.928 1.17 80.5C1.17 85.072 4.86 88.744 9.45 88.744ZM8.64 83.128C7.506 83.128 6.93 82.462 6.93 81.562C6.93 81.292 6.984 80.824 7.128 80.14C7.398 78.79 8.298 77.854 9.522 77.854C10.602 77.854 11.304 78.484 11.304 79.438C11.304 79.708 11.214 80.248 11.088 80.86C10.818 82.192 9.9 83.128 8.64 83.128ZM23.2525 85.144C24.5305 85.144 25.5565 84.676 26.1865 83.722L26.3665 85H27.6265V72.4H26.0065V77.044C25.3585 76.252 24.4225 75.856 23.2705 75.856C21.2185 75.856 19.7065 77.368 19.7065 80.158V80.842C19.7065 83.65 21.2005 85.144 23.2525 85.144ZM23.7025 83.596C22.2985 83.596 21.3985 82.678 21.3985 80.842V80.158C21.3985 78.286 22.2805 77.404 23.7025 77.404C24.9985 77.404 25.9525 78.322 26.0065 80.032V80.986C25.9525 82.678 24.9985 83.596 23.7025 83.596ZM30.4628 85H32.0828V76H30.4628V85ZM31.2728 74.632C31.8848 74.632 32.3528 74.164 32.3528 73.552C32.3528 72.94 31.8848 72.472 31.2728 72.472C30.6608 72.472 30.1928 72.94 30.1928 73.552C30.1928 74.164 30.6608 74.632 31.2728 74.632ZM37.9482 84.784C39.1002 84.784 40.0362 84.388 40.6842 83.632V85C40.6842 86.656 40.0362 87.304 38.4882 87.304C37.1202 87.304 36.6342 86.8 36.4542 85.9H34.8342C35.0142 87.646 36.0942 88.744 38.4882 88.744C40.9902 88.744 42.3042 87.43 42.3042 85V76H41.0442L40.8642 77.278C40.2342 76.342 39.2262 75.856 37.9482 75.856C35.8962 75.856 34.3842 77.368 34.3842 79.978V80.662C34.3842 83.29 35.8782 84.784 37.9482 84.784ZM38.3802 83.236C36.9762 83.236 36.0762 82.354 36.0762 80.662V79.978C36.0762 78.304 36.9582 77.404 38.3802 77.404C39.7122 77.404 40.6842 78.376 40.6842 79.978V80.662C40.6842 82.264 39.7122 83.236 38.3802 83.236ZM45.1405 85H46.7605V76H45.1405V85ZM45.9505 74.632C46.5625 74.632 47.0305 74.164 47.0305 73.552C47.0305 72.94 46.5625 72.472 45.9505 72.472C45.3385 72.472 44.8705 72.94 44.8705 73.552C44.8705 74.164 45.3385 74.632 45.9505 74.632ZM48.522 77.476H50.142V82.354C50.142 84.046 51.096 85 52.788 85H54.282V83.524H53.022C52.194 83.524 51.762 83.092 51.762 82.174V77.476H54.102V76H51.762V73.48H50.142V76H48.522V77.476ZM58.5141 85.144C59.8281 85.144 60.9081 84.55 61.5561 83.524L61.7541 85H63.0141V78.88C63.0141 77.026 61.8441 75.856 59.5941 75.856C57.2181 75.856 56.0841 76.99 55.9941 78.52H57.7941C57.8841 77.8 58.3881 77.296 59.5941 77.296C60.8181 77.296 61.3941 77.872 61.3941 78.88V79.546H59.5941C56.7321 79.546 55.6341 80.644 55.6341 82.48C55.6341 84.136 56.6421 85.144 58.5141 85.144ZM58.6941 83.704C57.8301 83.704 57.3261 83.2 57.3261 82.444C57.3261 81.526 57.9381 80.914 59.5941 80.914H61.3941V81.238C61.3941 82.57 60.2601 83.704 58.6941 83.704ZM68.2436 85H69.0356V83.524H68.4776C67.6496 83.524 67.2356 83.092 67.2356 82.174V72.4H65.6156V82.354C65.6156 84.064 66.5516 85 68.2436 85ZM73.7724 85.144C74.9244 85.144 75.8604 84.748 76.5084 83.974V88.6H78.1284V76H76.8684L76.6884 77.296C76.0584 76.342 75.0504 75.856 73.7724 75.856C71.7204 75.856 70.2084 77.368 70.2084 80.158V80.842C70.2084 83.65 71.7024 85.144 73.7724 85.144ZM74.2044 83.596C72.8004 83.596 71.9004 82.696 71.9004 80.842V80.158C71.9004 78.304 72.7824 77.404 74.2044 77.404C75.5004 77.404 76.4544 78.322 76.5084 80.032V80.842C76.5084 82.624 75.5364 83.596 74.2044 83.596ZM83.0707 85.144C84.3847 85.144 85.4647 84.55 86.1127 83.524L86.3107 85H87.5707V78.88C87.5707 77.026 86.4007 75.856 84.1507 75.856C81.7747 75.856 80.6407 76.99 80.5507 78.52H82.3507C82.4407 77.8 82.9447 77.296 84.1507 77.296C85.3747 77.296 85.9507 77.872 85.9507 78.88V79.546H84.1507C81.2887 79.546 80.1907 80.644 80.1907 82.48C80.1907 84.136 81.1987 85.144 83.0707 85.144ZM83.2507 83.704C82.3867 83.704 81.8827 83.2 81.8827 82.444C81.8827 81.526 82.4947 80.914 84.1507 80.914H85.9507V81.238C85.9507 82.57 84.8167 83.704 83.2507 83.704ZM92.8003 85H93.5923V83.524H93.0343C92.2063 83.524 91.7923 83.092 91.7923 82.174V72.4H90.1723V82.354C90.1723 84.064 91.1083 85 92.8003 85ZM97.7309 85.144C99.0449 85.144 100.125 84.55 100.773 83.524L100.971 85H102.231V78.88C102.231 77.026 101.061 75.856 98.8109 75.856C96.4349 75.856 95.3009 76.99 95.2109 78.52H97.0109C97.1009 77.8 97.6049 77.296 98.8109 77.296C100.035 77.296 100.611 77.872 100.611 78.88V79.546H98.8109C95.9489 79.546 94.8509 80.644 94.8509 82.48C94.8509 84.136 95.8589 85.144 97.7309 85.144ZM97.9109 83.704C97.0469 83.704 96.5429 83.2 96.5429 82.444C96.5429 81.526 97.1549 80.914 98.8109 80.914H100.611V81.238C100.611 82.57 99.4769 83.704 97.9109 83.704Z" fill="black"/>
<g clip-path="url(#clip0_50_224)">
<path d="M63.8793 15H50.1207C45.6429 15 42 18.6429 42 23.1207V36.8795C42 41.3571 45.6429 45 50.1207 45H63.8795C68.3571 45 72 41.3571 72 36.8795V23.1207C72 18.6429 68.3571 15 63.8793 15V15ZM70.2413 36.8795C70.2413 40.3873 67.3873 43.2413 63.8793 43.2413H50.1207C46.6127 43.2413 43.7587 40.3873 43.7587 36.8795V23.1207C43.7587 19.6127 46.6127 16.7587 50.1207 16.7587H63.8795C67.3873 16.7587 70.2413 19.6127 70.2413 23.1207V36.8795Z" fill="black"/>
<path d="M57 21.7969C52.4768 21.7969 48.7971 25.4766 48.7971 29.9998C48.7971 34.5229 52.4768 38.2027 57 38.2027C61.5232 38.2027 65.2029 34.5229 65.2029 29.9998C65.2029 25.4766 61.5232 21.7969 57 21.7969V21.7969ZM57 36.4439C53.4468 36.4439 50.5558 33.5532 50.5558 29.9998C50.5558 26.4466 53.4468 23.5556 57 23.5556C60.5534 23.5556 63.4442 26.4466 63.4442 29.9998C63.4442 33.5532 60.5534 36.4439 57 36.4439V36.4439Z" fill="black"/>
<path d="M65.399 18.8838C64.0623 18.8838 62.9751 19.9712 62.9751 21.3076C62.9751 22.6443 64.0623 23.7317 65.399 23.7317C66.7357 23.7317 67.8231 22.6443 67.8231 21.3076C67.8231 19.971 66.7357 18.8838 65.399 18.8838ZM65.399 21.9728C65.0323 21.9728 64.7339 21.6743 64.7339 21.3076C64.7339 20.9408 65.0323 20.6425 65.399 20.6425C65.7659 20.6425 66.0644 20.9408 66.0644 21.3076C66.0644 21.6743 65.7659 21.9728 65.399 21.9728Z" fill="black"/>
</g>
<circle cx="57" cy="30" r="29" stroke="black" stroke-width="2"/>
<defs>
<clipPath id="clip0_50_224">
<rect width="30" height="30" fill="white" transform="translate(42 15)"/>
</clipPath>
</defs>
</svg>
