<svg width="30" height="30" viewBox="0 0 30 30" fill="none" xmlns="http://www.w3.org/2000/svg">
<path d="M25.842 12.401H25.7678V10.5817C25.7678 4.73759 21.0303 0 15.1861 0C9.34192 0 4.60441 4.73759 4.60441 10.5817V12.401H4.15889C2.52521 12.401 1.26285 13.849 1.26285 15.5198V20.1609C1.2217 21.7803 2.50119 23.1264 4.12058 23.1676C4.13338 23.1679 4.1461 23.1681 4.15889 23.1683H6.9064C7.29556 23.15 7.59624 22.8196 7.5779 22.4305C7.57726 22.4165 7.5762 22.4025 7.57471 22.3886V13.292C7.57471 12.8465 7.31482 12.4009 6.9064 12.4009H6.08956V10.5816C6.08956 5.55777 10.1622 1.48508 15.1861 1.48508C20.2099 1.48508 24.2826 5.55777 24.2826 10.5816V12.4009H23.4658C23.0574 12.4009 22.7975 12.8464 22.7975 13.292V22.3886C22.756 22.7759 23.0365 23.1236 23.4238 23.165C23.4378 23.1665 23.4518 23.1676 23.4658 23.1682H24.3197L24.2454 23.2796C23.1313 24.7603 21.3831 25.6275 19.5301 25.6187C19.1245 23.6296 17.1831 22.3459 15.194 22.7516C13.493 23.0985 12.2666 24.5882 12.2529 26.3242C12.2732 28.3602 13.9296 30 15.9658 29.9999C16.9737 29.9835 17.9344 29.5699 18.639 28.8489C19.1144 28.3621 19.4259 27.739 19.5301 27.0667C21.8506 27.0755 24.0389 25.9881 25.4335 24.1335L26.139 23.0939C27.7355 22.9825 28.738 21.9801 28.738 20.532V15.8909C28.7381 14.2946 27.55 12.401 25.842 12.401ZM6.08956 21.6831H4.15889C3.35939 21.6637 2.72704 20.9998 2.74651 20.2003C2.74687 20.1872 2.74736 20.174 2.748 20.1608V15.5197C2.748 14.6658 3.34205 13.8861 4.15889 13.8861H6.08956V21.6831ZM17.5623 27.8094C17.1509 28.2555 16.5727 28.511 15.9658 28.5148C14.7578 28.4957 13.7775 27.5317 13.7381 26.3242C13.7376 25.1144 14.718 24.1332 15.9278 24.1327C17.1376 24.1322 18.1188 25.1126 18.1193 26.3224C18.1193 26.323 18.1193 26.3237 18.1193 26.3242C18.1502 26.8755 17.9481 27.4144 17.5623 27.8094ZM27.2529 20.5321C27.2529 21.5346 26.2875 21.6831 25.842 21.6831H24.2826V13.8861H25.842C26.6589 13.8861 27.2529 15.0371 27.2529 15.8911V20.5321Z" fill="black"/>
</svg>
