<svg width="189" height="90" viewBox="0 0 189 90" fill="none" xmlns="http://www.w3.org/2000/svg">
<path d="M4.41 85.144C6.912 85.144 8.01 84.046 8.01 82.48C8.01 78.79 2.682 80.356 2.682 78.43C2.682 77.728 3.114 77.296 4.41 77.296C5.544 77.296 5.958 77.728 6.138 78.61H7.83C7.65 76.936 6.552 75.856 4.41 75.856C2.088 75.856 0.99 76.954 0.99 78.43C0.99 81.868 6.318 80.302 6.318 82.48C6.318 83.272 5.886 83.704 4.41 83.704C3.096 83.704 2.682 83.272 2.502 82.21H0.81C0.99 84.046 2.088 85.144 4.41 85.144ZM13.4142 85.144C14.6022 85.144 15.5922 84.64 16.2222 83.758L16.3842 85H17.6442V76H16.0242V81.418C15.9702 82.714 15.0522 83.596 13.6842 83.596C12.4602 83.596 11.7042 82.84 11.7042 81.31V76H10.0842V81.31C10.0842 83.794 11.4342 85.144 13.4142 85.144ZM24.708 85.144C26.742 85.144 28.272 83.614 28.272 80.842V80.158C28.272 77.368 26.76 75.856 24.726 75.856C23.43 75.856 22.404 76.342 21.774 77.296L21.612 76H20.352V88.6H21.972V83.974C22.602 84.748 23.538 85.144 24.708 85.144ZM24.276 83.596C22.944 83.596 21.972 82.606 21.972 80.842V80.032C22.008 78.322 22.98 77.404 24.276 77.404C25.698 77.404 26.58 78.304 26.58 80.158V80.842C26.58 82.732 25.716 83.596 24.276 83.596ZM34.7802 85.144C36.8142 85.144 38.3442 83.614 38.3442 80.842V80.158C38.3442 77.368 36.8322 75.856 34.7982 75.856C33.5022 75.856 32.4762 76.342 31.8462 77.296L31.6842 76H30.4242V88.6H32.0442V83.974C32.6742 84.748 33.6102 85.144 34.7802 85.144ZM34.3482 83.596C33.0162 83.596 32.0442 82.606 32.0442 80.842V80.032C32.0802 78.322 33.0522 77.404 34.3482 77.404C35.7702 77.404 36.6522 78.304 36.6522 80.158V80.842C36.6522 82.732 35.7882 83.596 34.3482 83.596ZM44.0965 85.144C46.5985 85.144 48.2365 83.506 48.2365 80.842V80.158C48.2365 77.476 46.6165 75.856 44.0965 75.856C41.5945 75.856 39.9565 77.494 39.9565 80.158V80.842C39.9565 83.524 41.5765 85.144 44.0965 85.144ZM44.0965 83.596C42.6025 83.596 41.6485 82.642 41.6485 80.842V80.158C41.6485 78.34 42.5845 77.404 44.0965 77.404C45.5905 77.404 46.5445 78.358 46.5445 80.158V80.842C46.5445 82.66 45.6085 83.596 44.0965 83.596ZM50.393 85H52.013V79.6C52.049 78.304 52.967 77.404 54.623 77.404H55.523V75.856H54.623C53.435 75.856 52.427 76.342 51.815 77.224L51.653 76H50.393V85ZM56.5024 77.476H58.1224V82.354C58.1224 84.046 59.0764 85 60.7684 85H62.2624V83.524H61.0024C60.1744 83.524 59.7424 83.092 59.7424 82.174V77.476H62.0824V76H59.7424V73.48H58.1224V76H56.5024V77.476ZM72.1688 88.744C73.8248 88.744 75.4268 88.456 76.3088 88.096V86.458C75.1928 86.908 73.8068 87.196 72.1688 87.196C68.4788 87.196 65.5088 84.262 65.5088 80.5C65.5088 76.72 68.4788 73.804 72.1688 73.804C76.2008 73.804 78.7928 76.36 78.7928 79.582C78.7928 81.85 77.4968 83.146 76.2188 83.146C75.5888 83.146 75.2288 82.786 75.2288 82.264C75.2288 82.12 75.2648 82.012 75.2828 81.868L76.2368 76.45H74.6168L74.4548 77.332C73.9688 76.63 73.1768 76.306 72.1868 76.306C70.1708 76.306 68.5508 77.908 68.1548 80.14C68.0648 80.68 67.9568 81.22 67.9568 81.598C67.9568 83.524 69.1448 84.694 70.8368 84.694C72.0248 84.694 73.0148 84.19 73.7348 83.308C74.0408 84.154 74.9048 84.694 76.1828 84.694C78.6308 84.694 80.4488 82.876 80.4488 79.582C80.4488 75.586 77.1188 72.256 72.1688 72.256C67.5788 72.256 63.8888 75.928 63.8888 80.5C63.8888 85.072 67.5788 88.744 72.1688 88.744ZM71.3588 83.128C70.2248 83.128 69.6488 82.462 69.6488 81.562C69.6488 81.292 69.7028 80.824 69.8468 80.14C70.1168 78.79 71.0168 77.854 72.2408 77.854C73.3208 77.854 74.0228 78.484 74.0228 79.438C74.0228 79.708 73.9328 80.248 73.8068 80.86C73.5368 82.192 72.6188 83.128 71.3588 83.128ZM85.9712 85.144C87.2492 85.144 88.2752 84.676 88.9052 83.722L89.0852 85H90.3452V72.4H88.7252V77.044C88.0772 76.252 87.1412 75.856 85.9892 75.856C83.9372 75.856 82.4252 77.368 82.4252 80.158V80.842C82.4252 83.65 83.9192 85.144 85.9712 85.144ZM86.4212 83.596C85.0172 83.596 84.1172 82.678 84.1172 80.842V80.158C84.1172 78.286 84.9992 77.404 86.4212 77.404C87.7172 77.404 88.6712 78.322 88.7252 80.032V80.986C88.6712 82.678 87.7172 83.596 86.4212 83.596ZM93.1815 85H94.8015V76H93.1815V85ZM93.9915 74.632C94.6035 74.632 95.0715 74.164 95.0715 73.552C95.0715 72.94 94.6035 72.472 93.9915 72.472C93.3795 72.472 92.9115 72.94 92.9115 73.552C92.9115 74.164 93.3795 74.632 93.9915 74.632ZM100.667 84.784C101.819 84.784 102.755 84.388 103.403 83.632V85C103.403 86.656 102.755 87.304 101.207 87.304C99.839 87.304 99.353 86.8 99.173 85.9H97.553C97.733 87.646 98.813 88.744 101.207 88.744C103.709 88.744 105.023 87.43 105.023 85V76H103.763L103.583 77.278C102.953 76.342 101.945 75.856 100.667 75.856C98.615 75.856 97.103 77.368 97.103 79.978V80.662C97.103 83.29 98.597 84.784 100.667 84.784ZM101.099 83.236C99.695 83.236 98.795 82.354 98.795 80.662V79.978C98.795 78.304 99.677 77.404 101.099 77.404C102.431 77.404 103.403 78.376 103.403 79.978V80.662C103.403 82.264 102.431 83.236 101.099 83.236ZM107.859 85H109.479V76H107.859V85ZM108.669 74.632C109.281 74.632 109.749 74.164 109.749 73.552C109.749 72.94 109.281 72.472 108.669 72.472C108.057 72.472 107.589 72.94 107.589 73.552C107.589 74.164 108.057 74.632 108.669 74.632ZM111.241 77.476H112.861V82.354C112.861 84.046 113.815 85 115.507 85H117.001V83.524H115.741C114.913 83.524 114.481 83.092 114.481 82.174V77.476H116.821V76H114.481V73.48H112.861V76H111.241V77.476ZM121.233 85.144C122.547 85.144 123.627 84.55 124.275 83.524L124.473 85H125.733V78.88C125.733 77.026 124.563 75.856 122.313 75.856C119.937 75.856 118.803 76.99 118.713 78.52H120.513C120.603 77.8 121.107 77.296 122.313 77.296C123.537 77.296 124.113 77.872 124.113 78.88V79.546H122.313C119.451 79.546 118.353 80.644 118.353 82.48C118.353 84.136 119.361 85.144 121.233 85.144ZM121.413 83.704C120.549 83.704 120.045 83.2 120.045 82.444C120.045 81.526 120.657 80.914 122.313 80.914H124.113V81.238C124.113 82.57 122.979 83.704 121.413 83.704ZM130.962 85H131.754V83.524H131.196C130.368 83.524 129.954 83.092 129.954 82.174V72.4H128.334V82.354C128.334 84.064 129.27 85 130.962 85ZM136.491 85.144C137.643 85.144 138.579 84.748 139.227 83.974V88.6H140.847V76H139.587L139.407 77.296C138.777 76.342 137.769 75.856 136.491 75.856C134.439 75.856 132.927 77.368 132.927 80.158V80.842C132.927 83.65 134.421 85.144 136.491 85.144ZM136.923 83.596C135.519 83.596 134.619 82.696 134.619 80.842V80.158C134.619 78.304 135.501 77.404 136.923 77.404C138.219 77.404 139.173 78.322 139.227 80.032V80.842C139.227 82.624 138.255 83.596 136.923 83.596ZM145.789 85.144C147.103 85.144 148.183 84.55 148.831 83.524L149.029 85H150.289V78.88C150.289 77.026 149.119 75.856 146.869 75.856C144.493 75.856 143.359 76.99 143.269 78.52H145.069C145.159 77.8 145.663 77.296 146.869 77.296C148.093 77.296 148.669 77.872 148.669 78.88V79.546H146.869C144.007 79.546 142.909 80.644 142.909 82.48C142.909 84.136 143.917 85.144 145.789 85.144ZM145.969 83.704C145.105 83.704 144.601 83.2 144.601 82.444C144.601 81.526 145.213 80.914 146.869 80.914H148.669V81.238C148.669 82.57 147.535 83.704 145.969 83.704ZM155.519 85H156.311V83.524H155.753C154.925 83.524 154.511 83.092 154.511 82.174V72.4H152.891V82.354C152.891 84.064 153.827 85 155.519 85ZM160.45 85.144C161.764 85.144 162.844 84.55 163.492 83.524L163.69 85H164.95V78.88C164.95 77.026 163.78 75.856 161.53 75.856C159.154 75.856 158.02 76.99 157.93 78.52H159.73C159.82 77.8 160.324 77.296 161.53 77.296C162.754 77.296 163.33 77.872 163.33 78.88V79.546H161.53C158.668 79.546 157.57 80.644 157.57 82.48C157.57 84.136 158.578 85.144 160.45 85.144ZM160.63 83.704C159.766 83.704 159.262 83.2 159.262 82.444C159.262 81.526 159.874 80.914 161.53 80.914H163.33V81.238C163.33 82.57 162.196 83.704 160.63 83.704ZM168.451 85.144C169.189 85.144 169.711 84.586 169.711 83.884C169.711 83.182 169.189 82.624 168.451 82.624C167.713 82.624 167.191 83.182 167.191 83.884C167.191 84.586 167.713 85.144 168.451 85.144ZM177.631 85H179.611L176.137 79.942L179.251 76H177.307L173.671 80.626V72.4H172.051V85H173.671V82.858L175.075 81.13L177.631 85ZM180.687 77.476H185.655L180.507 83.524V85H187.527V83.524H182.379L187.527 77.476V76H180.687V77.476Z" fill="black"/>
<circle cx="95" cy="30" r="29" stroke="black" stroke-width="2"/>
<path d="M105.842 27.401H105.768V25.5817C105.768 19.7376 101.03 15 95.1861 15C89.3419 15 84.6044 19.7376 84.6044 25.5817V27.401H84.1589C82.5252 27.401 81.2629 28.849 81.2629 30.5198V35.1609C81.2217 36.7803 82.5012 38.1264 84.1206 38.1676C84.1334 38.1679 84.1461 38.1681 84.1589 38.1683H86.9064C87.2956 38.15 87.5962 37.8196 87.5779 37.4305C87.5773 37.4165 87.5762 37.4025 87.5747 37.3886V28.292C87.5747 27.8465 87.3148 27.4009 86.9064 27.4009H86.0896V25.5816C86.0896 20.5578 90.1622 16.4851 95.1861 16.4851C100.21 16.4851 104.283 20.5578 104.283 25.5816V27.4009H103.466C103.057 27.4009 102.797 27.8464 102.797 28.292V37.3886C102.756 37.7759 103.036 38.1236 103.424 38.165C103.438 38.1665 103.452 38.1676 103.466 38.1682H104.32L104.245 38.2796C103.131 39.7603 101.383 40.6275 99.5301 40.6187C99.1245 38.6296 97.1831 37.3459 95.194 37.7516C93.493 38.0985 92.2666 39.5882 92.2529 41.3242C92.2732 43.3602 93.9296 45 95.9658 44.9999C96.9737 44.9835 97.9344 44.5699 98.639 43.8489C99.1144 43.3621 99.4259 42.739 99.5301 42.0667C101.851 42.0755 104.039 40.9881 105.434 39.1335L106.139 38.0939C107.736 37.9825 108.738 36.9801 108.738 35.532V30.8909C108.738 29.2946 107.55 27.401 105.842 27.401ZM86.0896 36.6831H84.1589C83.3594 36.6637 82.727 35.9998 82.7465 35.2003C82.7469 35.1872 82.7474 35.174 82.748 35.1608V30.5197C82.748 29.6658 83.342 28.8861 84.1589 28.8861H86.0896V36.6831ZM97.5623 42.8094C97.1509 43.2555 96.5727 43.511 95.9658 43.5148C94.7578 43.4957 93.7775 42.5317 93.7381 41.3242C93.7376 40.1144 94.718 39.1332 95.9278 39.1327C97.1376 39.1322 98.1188 40.1126 98.1193 41.3224C98.1193 41.323 98.1193 41.3237 98.1193 41.3242C98.1502 41.8755 97.9481 42.4144 97.5623 42.8094ZM107.253 35.5321C107.253 36.5346 106.288 36.6831 105.842 36.6831H104.283V28.8861H105.842C106.659 28.8861 107.253 30.0371 107.253 30.8911V35.5321Z" fill="black"/>
</svg>
