<svg width="12" height="12" viewBox="0 0 12 12" fill="none" xmlns="http://www.w3.org/2000/svg">
<path d="M1.70711 0.292893C1.31658 -0.0976311 0.683418 -0.0976311 0.292893 0.292893C-0.0976311 0.683418 -0.0976311 1.31658 0.292893 1.70711L1.70711 0.292893ZM10.8995 11.8995C11.4518 11.8995 11.8995 11.4518 11.8995 10.8995L11.8995 1.8995C11.8995 1.34721 11.4518 0.899496 10.8995 0.899496C10.3472 0.899496 9.8995 1.34721 9.8995 1.8995L9.8995 9.8995L1.8995 9.8995C1.34721 9.8995 0.899496 10.3472 0.899496 10.8995C0.899496 11.4518 1.34721 11.8995 1.8995 11.8995L10.8995 11.8995ZM0.292893 1.70711L10.1924 11.6066L11.6066 10.1924L1.70711 0.292893L0.292893 1.70711Z" fill="black"/>
</svg>
