<svg width="12" height="12" viewBox="0 0 12 12" fill="none" xmlns="http://www.w3.org/2000/svg">
<path d="M0.292893 10.1924C-0.0976311 10.583 -0.0976311 11.2161 0.292893 11.6066C0.683418 11.9972 1.31658 11.9972 1.70711 11.6066L0.292893 10.1924ZM11.8995 1.00004C11.8995 0.447756 11.4518 4.04305e-05 10.8995 4.08519e-05L1.8995 4.09784e-05C1.34721 4.06412e-05 0.899496 0.447756 0.899496 1.00004C0.899496 1.55233 1.34721 2.00004 1.8995 2.00004L9.8995 2.00004L9.8995 10C9.8995 10.5523 10.3472 11 10.8995 11C11.4518 11 11.8995 10.5523 11.8995 10L11.8995 1.00004ZM1.70711 11.6066L11.6066 1.70715L10.1924 0.292934L0.292893 10.1924L1.70711 11.6066Z" fill="#7354FF"/>
</svg>
